<?xml version="1.0" encoding="utf-8"?>
<!-- Generator: Adobe Illustrator 23.0.3, SVG Export Plug-In . SVG Version: 6.00 Build 0)  -->
<svg version="1.1" id="Layer_1" xmlns="http://www.w3.org/2000/svg" xmlns:xlink="http://www.w3.org/1999/xlink" x="0px" y="0px"
	 viewBox="0 0 1230.1 1230.1" style="enable-background:new 0 0 1230.1 1230.1;" xml:space="preserve">
<style type="text/css">
	.st0{fill:#F81950;}
	.st1{fill:#FFFFFE;}
	.st2{fill:url(#SVGID_1_);}
	.st3{fill:url(#SVGID_2_);}
	.st4{fill:url(#SVGID_3_);}
	.st5{enable-background:new    ;}
	.st6{fill:#3420F2;}
</style>
<title>Logo-WolfoxFichier 1</title>
<g id="Calque_2">
	<g id="Calque_1-2">
		
			<rect x="553.5" y="78.6" transform="matrix(0.7071 -0.7071 0.7071 0.7071 -119.8499 677.0974)" class="st0" width="407.8" height="809.3"/>
		<path class="st1" d="M1190.2,625.1v-587L898.3,329.9L614.8,46.5L331.2,329.9L39.4,38.1v587l0,0l0,0c0,1,0.2,2.1,0.6,3.1v0.1
			c0.4,1,1.1,2,1.9,2.8l289.4,289.2l283.6-283.4l283.5,283.4l289.4-289.2c0.8-0.8,1.4-1.7,1.8-2.8v-0.1
			C1189.9,627.3,1190.1,626.2,1190.2,625.1L1190.2,625.1L1190.2,625.1z M1173.3,604.8l-263.1-263l263.1-263V604.8z M886.4,341.8
			l-263.1,263l-0.1-526L886.4,341.8z M606.2,604.8l-263.1-263l263.2-263L606.2,604.8z M319.4,341.8l-263.1,263v-526L319.4,341.8z
			 M59.7,625.2l271.5-271.4l271.5,271.4L331.2,896.5L59.7,625.2z M626.8,625.2l271.5-271.4l271.5,271.4L898.3,896.5L626.8,625.2z"/>
	</g>
</g>
<g>
	
		<linearGradient id="SVGID_1_" gradientUnits="userSpaceOnUse" x1="-138.9949" y1="-8.9" x2="1368.5894" y2="-8.9" gradientTransform="matrix(1 0 0 1 0 634.0001)">
		<stop  offset="0" style="stop-color:#3F18DC"/>
		<stop  offset="1" style="stop-color:#1F56F7"/>
	</linearGradient>
	<polygon class="st2" points="59.7,625.2 331.2,896.5 602.7,625.2 331.2,353.7 	"/>
	
		<linearGradient id="SVGID_2_" gradientUnits="userSpaceOnUse" x1="-138.9949" y1="-292.2" x2="1368.5894" y2="-292.2" gradientTransform="matrix(1 0 0 1 0 634.0001)">
		<stop  offset="0" style="stop-color:#3F18DC"/>
		<stop  offset="1" style="stop-color:#1F56F7"/>
	</linearGradient>
	<polygon class="st3" points="56.2,78.8 56.2,604.8 319.4,341.8 	"/>
	
		<linearGradient id="SVGID_3_" gradientUnits="userSpaceOnUse" x1="-138.9949" y1="-292.2" x2="1368.5894" y2="-292.2" gradientTransform="matrix(1 0 0 1 0 634.0001)">
		<stop  offset="0" style="stop-color:#3F18DC"/>
		<stop  offset="1" style="stop-color:#1F56F7"/>
	</linearGradient>
	<polygon class="st4" points="1173.3,78.8 910.3,341.8 1173.3,604.8 	"/>
</g>
<g class="st5">
	<path class="st6" d="M351.4,1002.4l-50.7,168h-68.6l-30.2-107.9l-29.9,107.9h-68.2l-51.1-168h60.2l28.2,126.4l32.9-126.4h56.5
		l32.6,127l28.6-127H351.4z"/>
	<path class="st6" d="M540.9,1086.4c0,55.1-32.6,87.4-88.7,87.4c-56.1,0-88.7-32.3-88.7-87.4s32.6-87.4,88.7-87.4
		C508.3,999.1,540.9,1031.3,540.9,1086.4z M420.6,1086.4c0,32.9,10.4,46.7,31.6,46.7s31.6-13.8,31.6-46.7s-10.4-46.7-31.6-46.7
		S420.6,1053.5,420.6,1086.4z"/>
	<path class="st6" d="M630.3,1112.3c0,14.8,3.7,20.8,15.5,20.8c6.7,0,11.1-1,17.1-3l-3.7,35.3c-8.1,5-22.5,8.4-35,8.4
		c-36,0-51.1-15.8-51.1-53.1V931.2h57.1V1112.3z"/>
	<path class="st6" d="M748.9,1002.4H800v40.7h-47.7v127.4h-57.1v-127.4h-26.9v-40.7h26.9V987c0-42.3,29.9-60.5,67.9-60.5
		c17.5,0,30.9,3.7,38.6,9.7l-5.7,35.6c-5-3.7-10.4-5.4-19.2-5.4c-17.5,0-27.9,6.7-27.9,24.2V1002.4z"/>
	<path class="st6" d="M990.6,1086.4c0,55.1-32.6,87.4-88.7,87.4c-56.1,0-88.7-32.3-88.7-87.4s32.6-87.4,88.7-87.4
		C958,999.1,990.6,1031.3,990.6,1086.4z M870.3,1086.4c0,32.9,10.4,46.7,31.6,46.7s31.6-13.8,31.6-46.7s-10.4-46.7-31.6-46.7
		S870.3,1053.5,870.3,1086.4z"/>
	<path class="st6" d="M1125.7,1170.5l-32.9-58.5l-33.6,58.5h-63.2l60.5-85l-58.1-83h64.9l30.9,55.8l31.6-55.8h63.2l-58.1,83.3
		l59.5,84.7H1125.7z"/>
</g>
</svg>
